<svg id="logo" class="logo" xmlns="http://www.w3.org/2000/svg" viewBox="0 0 320 90">
                            <style type="text/css">.st0{fill:#FFFFFF;}</style>
                            <rect width="320" height="90"></rect><path class="st0" d="M37.2 31.1h9.9v8.6h-9.6v29.2H26.3V39.7h-6v-8.6h6v-1.7c0-4.4 1.3-7.9 3.9-10.5 2.6-2.6 6.3-3.9 11.1-3.9 1.7 0 3.3 0.2 4.8 0.5 1.5 0.4 2.8 0.9 3.8 1.5l-3 8.1c-1.3-0.9-2.8-1.4-4.5-1.4 -3.4 0-5.1 1.9-5.1 5.6V31.1z"></path><path class="st0" d="M49.9 67.5c-1.3-1.3-2-3-2-5 0-2.1 0.7-3.7 2-5 1.3-1.3 3-1.9 5-1.9 2 0 3.6 0.6 5 1.9 1.3 1.3 2 2.9 2 5 0 2-0.7 3.7-2 5 -1.3 1.3-3 2-5 2C52.9 69.5 51.2 68.8 49.9 67.5z"></path><path class="st0" d="M104.2 30.2L86.7 71.3c-1.8 4.5-4 7.6-6.6 9.4 -2.6 1.8-5.8 2.7-9.5 2.7 -2 0-4-0.3-6-0.9 -2-0.6-3.6-1.5-4.8-2.6l4.1-8c0.9 0.8 1.9 1.4 3 1.8 1.1 0.4 2.2 0.6 3.3 0.6 1.5 0 2.8-0.4 3.7-1.1 1-0.7 1.8-2 2.6-3.7l0.1-0.4 -16.8-39h11.6l10.9 26.3 10.9-26.3H104.2z"></path><path class="st0" d="M107.9 23c-1.3-1.2-1.9-2.7-1.9-4.5 0-1.8 0.6-3.3 1.9-4.5 1.3-1.2 3-1.8 5-1.8 2.1 0 3.7 0.6 5 1.7 1.3 1.2 1.9 2.6 1.9 4.3 0 1.9-0.6 3.4-1.9 4.6 -1.3 1.2-3 1.8-5 1.8C110.9 24.8 109.2 24.2 107.9 23zM107.3 30.2h11.2v38.7h-11.2V30.2z"></path><path class="st0" d="M127.6 15.5h11.2v53.4h-11.2V15.5z"></path><path class="st0" d="M209 33.9c2.9 2.9 4.3 7.1 4.3 12.9v22.2H202V48.5c0-3.1-0.6-5.4-1.9-6.9 -1.3-1.5-3.1-2.3-5.4-2.3 -2.6 0-4.7 0.9-6.3 2.6 -1.5 1.7-2.3 4.2-2.3 7.6v19.4h-11.2V48.5c0-6.1-2.4-9.1-7.3-9.1 -2.6 0-4.7 0.9-6.2 2.6 -1.5 1.7-2.3 4.2-2.3 7.6v19.4h-11.2V30.2h10.7v4.5c1.4-1.6 3.2-2.9 5.3-3.7 2.1-0.9 4.4-1.3 6.9-1.3 2.7 0 5.2 0.5 7.4 1.6 2.2 1.1 4 2.7 5.3 4.7 1.6-2 3.6-3.6 6-4.7 2.4-1.1 5.1-1.7 8-1.7C202.2 29.6 206.1 31 209 33.9z"></path><path class="st0" d="M251.3 33.9c3.2 2.9 4.8 7.2 4.8 12.9v22.1h-10.5v-4.8c-2.1 3.6-6 5.4-11.8 5.4 -3 0-5.6-0.5-7.7-1.5 -2.2-1-3.9-2.4-5-4.2 -1.2-1.8-1.7-3.8-1.7-6 0-3.6 1.4-6.4 4.1-8.5 2.7-2.1 6.9-3.1 12.6-3.1h8.9c0-2.4-0.7-4.3-2.2-5.7 -1.5-1.3-3.7-2-6.7-2 -2.1 0-4.1 0.3-6.1 1 -2 0.6-3.7 1.5-5.1 2.6l-4-7.8c2.1-1.5 4.6-2.6 7.6-3.5 3-0.8 6-1.2 9.1-1.2C243.5 29.6 248.1 31 251.3 33.9zM241.7 60.6c1.5-0.9 2.5-2.2 3.2-3.9v-4h-7.7c-4.6 0-6.9 1.5-6.9 4.5 0 1.4 0.6 2.6 1.7 3.4 1.1 0.8 2.7 1.3 4.6 1.3C238.6 61.9 240.3 61.5 241.7 60.6z"></path><path class="st0" d="M296.8 60.3v8.6h-34.6v-6.8l19.7-23.3h-19.2v-8.6h33.4V37l-19.7 23.3H296.8z"></path></svg>